<?xml version="1.0" encoding="UTF-8"?>
<!DOCTYPE svg PUBLIC "-//W3C//DTD SVG 1.1//EN" "http://www.w3.org/Graphics/SVG/1.1/DTD/svg11.dtd">
<!-- Creator: CorelDRAW X7 -->
<svg xmlns="http://www.w3.org/2000/svg" xml:space="preserve" width="144px" height="111px" version="1.1" style="shape-rendering:geometricPrecision; text-rendering:geometricPrecision; image-rendering:optimizeQuality; fill-rule:evenodd; clip-rule:evenodd"
viewBox="0 0 14400 11100"
 xmlns:xlink="http://www.w3.org/1999/xlink">
 <defs>
  <style type="text/css">
   <![CDATA[
    .fil0 {fill:url(#id0)}
   ]]>
  </style>
  <linearGradient id="id0" gradientUnits="userSpaceOnUse" x1="13075.7" y1="9844.89" x2="1324.04" y2="1255.06">
   <stop offset="0" style="stop-opacity:1; stop-color:#3E4095"/>
   <stop offset="0.211765" style="stop-opacity:1; stop-color:#3D4187"/>
   <stop offset="0.639216" style="stop-opacity:1; stop-color:#6E0999"/>
   <stop offset="1" style="stop-opacity:1; stop-color:#954F9D"/>
  </linearGradient>
 </defs>
 <g id="Layer_x0020_1">
  <metadata id="CorelCorpID_0Corel-Layer"/>
  <path class="fil0" d="M2418 6c41,-1 83,-2 125,-2 1830,0 3483,654 4658,1704 1176,-1050 2828,-1704 4659,-1704 41,0 83,1 125,2 -1734,246 -3236,1092 -4215,2285 250,295 467,612 647,947 1021,-1908 3267,-3234 5874,-3234 41,0 83,1 125,2 -3070,436 -5412,2752 -5412,5544 0,2792 2342,5108 5412,5544 -42,1 -84,1 -125,1 -2607,0 -4853,-1325 -5874,-3233 -180,335 -397,652 -647,947 979,1193 2481,2039 4215,2285 -42,1 -84,1 -125,1 -1831,0 -3483,-653 -4659,-1703 -1175,1050 -2828,1703 -4658,1703 -42,0 -84,0 -125,-1 1733,-246 3235,-1092 4214,-2285 -250,-295 -467,-612 -646,-947 -1022,1908 -3268,3233 -5874,3233 -42,0 -84,0 -125,-1 3069,-436 5412,-2752 5412,-5544 0,-2792 -2343,-5108 -5412,-5544 41,-1 83,-2 125,-2 2606,0 4852,1326 5874,3234 179,-335 396,-652 646,-947 -979,-1193 -2481,-2039 -4214,-2285zm8161 4799c411,0 744,334 744,745 0,411 -333,745 -744,745 -412,0 -745,-334 -745,-745 0,-411 333,-745 745,-745zm1546 1547c411,0 744,333 744,744 0,411 -333,745 -744,745 -411,0 -745,-334 -745,-745 0,-411 334,-744 745,-744zm1546 -1547c411,0 745,334 745,745 0,411 -334,745 -745,745 -411,0 -744,-334 -744,-745 0,-411 333,-745 744,-745zm-1546 -1546c411,0 744,333 744,745 0,411 -333,744 -744,744 -411,0 -745,-333 -745,-744 0,-412 334,-745 745,-745zm-12141 2612l0 -642c0,-149 122,-270 271,-270l1030 0 0 -1030c0,-149 121,-270 270,-270l642 0c148,0 270,121 270,270l0 1030 1030 0c149,0 270,121 270,270l0 642c0,148 -121,270 -270,270l-1030 0 0 1030c0,149 -122,271 -270,271l-642 0c-149,0 -270,-122 -270,-271l0 -1030 -1030 0c-149,0 -271,-122 -271,-270zm7217 2098c403,-732 629,-1553 629,-2419 0,-866 -226,-1687 -629,-2419 -403,732 -628,1553 -628,2419 0,866 225,1687 628,2419z"/>
 </g>
</svg>
