<?xml version="1.0" encoding="UTF-8"?>
<!DOCTYPE svg PUBLIC "-//W3C//DTD SVG 1.1//EN" "http://www.w3.org/Graphics/SVG/1.1/DTD/svg11.dtd">
<!-- Creator: CorelDRAW X7 -->
<svg xmlns="http://www.w3.org/2000/svg" xml:space="preserve" width="256px" height="256px" version="1.1" style="shape-rendering:geometricPrecision; text-rendering:geometricPrecision; image-rendering:optimizeQuality; fill-rule:evenodd; clip-rule:evenodd"
viewBox="0 0 25600 25600"
 xmlns:xlink="http://www.w3.org/1999/xlink">
 <defs>
  <style type="text/css">
   <![CDATA[
    .fil1 {fill:#FEFEFE}
    .fil0 {fill:#3A57A4}
   ]]>
  </style>
 </defs>
 <g id="Layer_x0020_1">
  <metadata id="CorelCorpID_0Corel-Layer"/>
  <g id="_441181656">
   <circle class="fil0" cx="12800" cy="12800" r="12800"/>
   <path class="fil1" d="M6927 5992c51,-1 102,-2 154,-2 2247,0 4277,802 5721,2092 1443,-1290 3472,-2092 5720,-2092 51,0 103,1 154,2 -2129,302 -3973,1341 -5175,2806 307,362 573,751 793,1163 1254,-2344 4013,-3971 7214,-3971 51,0 102,1 153,2 -3769,535 -6646,3379 -6646,6808 0,3429 2877,6273 6646,6808 -51,1 -102,2 -153,2 -3201,0 -5960,-1627 -7214,-3971 -220,411 -486,801 -793,1163 1202,1465 3046,2504 5175,2806 -51,1 -103,2 -154,2 -2248,0 -4277,-802 -5720,-2092 -1444,1290 -3474,2092 -5721,2092 -52,0 -103,-1 -154,-2 2129,-302 3973,-1341 5175,-2806 -307,-362 -573,-752 -793,-1163 -1255,2344 -4013,3971 -7214,3971 -51,0 -102,-1 -153,-2 3769,-535 6646,-3379 6646,-6808 0,-3429 -2877,-6273 -6646,-6808 51,-1 102,-2 153,-2 3201,0 5959,1627 7214,3971 220,-412 486,-801 793,-1163 -1202,-1465 -3046,-2504 -5175,-2806zm10022 5894c505,0 915,409 915,914 0,505 -410,914 -915,914 -505,0 -914,-409 -914,-914 0,-505 409,-914 914,-914zm1899 1899c505,0 914,409 914,914 0,505 -409,914 -914,914 -505,0 -914,-409 -914,-914 0,-505 409,-914 914,-914zm1899 -1899c505,0 914,409 914,914 0,505 -409,914 -914,914 -505,0 -914,-409 -914,-914 0,-505 409,-914 914,-914zm-1899 -1899c505,0 914,409 914,914 0,505 -409,914 -914,914 -505,0 -914,-409 -914,-914 0,-505 409,-914 914,-914zm-14909 3207l0 -788c0,-183 149,-332 332,-332l1265 0 0 -1265c0,-183 149,-332 332,-332l787 0c183,0 332,149 332,332l0 1265 1266 0c182,0 332,149 332,332l0 788c0,182 -150,332 -332,332l-1266 0 0 1265c0,183 -149,332 -332,332l-787 0c-183,0 -332,-149 -332,-332l0 -1265 -1265 0c-183,0 -332,-150 -332,-332zm8863 2577c494,-900 771,-1907 771,-2971 0,-1064 -277,-2072 -771,-2971 -495,899 -772,1907 -772,2971 0,1064 277,2071 772,2971z"/>
  </g>
 </g>
</svg>
