<?xml version="1.0" encoding="UTF-8"?>
<!DOCTYPE svg PUBLIC "-//W3C//DTD SVG 1.1//EN" "http://www.w3.org/Graphics/SVG/1.1/DTD/svg11.dtd">
<!-- Creator: CorelDRAW X7 -->
<svg xmlns="http://www.w3.org/2000/svg" xml:space="preserve" width="256px" height="196px" version="1.1" style="shape-rendering:geometricPrecision; text-rendering:geometricPrecision; image-rendering:optimizeQuality; fill-rule:evenodd; clip-rule:evenodd"
viewBox="0 0 25600 19600"
 xmlns:xlink="http://www.w3.org/1999/xlink">
 <defs>
  <style type="text/css">
   <![CDATA[
    .fil0 {fill:url(#id0)}
   ]]>
  </style>
  <linearGradient id="id0" gradientUnits="userSpaceOnUse" x1="23203.7" y1="17404.5" x2="2396.11" y2="2195.44">
   <stop offset="0" style="stop-opacity:1; stop-color:#3E4095"/>
   <stop offset="0.211765" style="stop-opacity:1; stop-color:#3D4187"/>
   <stop offset="0.639216" style="stop-opacity:1; stop-color:#6E0999"/>
   <stop offset="1" style="stop-opacity:1; stop-color:#954F9D"/>
  </linearGradient>
 </defs>
 <g id="Layer_x0020_1">
  <metadata id="CorelCorpID_0Corel-Layer"/>
  <path class="fil0" d="M4333 -16c73,-1 147,-3 221,-3 3241,0 6167,1157 8248,3016 2082,-1859 5007,-3016 8248,-3016 74,0 148,2 221,3 -3069,436 -5728,1934 -7461,4046 443,522 827,1084 1144,1676 1809,-3378 5785,-5725 10401,-5725 74,0 147,2 221,3 -5434,772 -9582,4872 -9582,9816 0,4944 4148,9044 9582,9816 -74,1 -147,3 -221,3 -4616,0 -8592,-2347 -10401,-5725 -317,593 -701,1154 -1144,1676 1733,2112 4392,3610 7461,4046 -73,1 -147,3 -221,3 -3241,0 -6166,-1157 -8248,-3016 -2081,1859 -5007,3016 -8248,3016 -74,0 -148,-2 -221,-3 3069,-436 5728,-1934 7461,-4046 -442,-522 -827,-1083 -1144,-1676 -1809,3378 -5785,5725 -10401,5725 -73,0 -147,-2 -221,-3 5434,-772 9582,-4872 9582,-9816 0,-4944 -4148,-9044 -9582,-9816 74,-1 148,-3 221,-3 4616,0 8592,2347 10401,5725 317,-592 702,-1154 1144,-1676 -1733,-2112 -4392,-3610 -7461,-4046zm14449 8498c728,0 1318,590 1318,1318 0,728 -590,1318 -1318,1318 -728,0 -1318,-590 -1318,-1318 0,-728 590,-1318 1318,-1318zm2738 2738c728,0 1318,590 1318,1318 0,728 -590,1318 -1318,1318 -728,0 -1318,-590 -1318,-1318 0,-728 590,-1318 1318,-1318zm2738 -2738c728,0 1318,590 1318,1318 0,728 -590,1318 -1318,1318 -728,0 -1319,-590 -1319,-1318 0,-728 591,-1318 1319,-1318zm-2738 -2738c728,0 1318,590 1318,1318 0,728 -590,1319 -1318,1319 -728,0 -1318,-591 -1318,-1319 0,-728 590,-1318 1318,-1318zm-21496 4624l0 -1136c0,-263 215,-478 478,-478l1824 0 0 -1824c0,-264 216,-479 479,-479l1136 0c263,0 478,215 478,479l0 1824 1825 0c263,0 478,215 478,478l0 1136c0,263 -215,479 -478,479l-1825 0 0 1824c0,263 -215,478 -478,478l-1136 0c-263,0 -479,-215 -479,-478l0 -1824 -1824 0c-263,0 -478,-216 -478,-479zm12778 3716c714,-1297 1113,-2750 1113,-4284 0,-1534 -399,-2987 -1113,-4284 -713,1297 -1113,2750 -1113,4284 0,1534 400,2987 1113,4284z"/>
 </g>
</svg>
