<?xml version="1.0" encoding="UTF-8"?>
<!DOCTYPE svg PUBLIC "-//W3C//DTD SVG 1.1//EN" "http://www.w3.org/Graphics/SVG/1.1/DTD/svg11.dtd">
<!-- Creator: CorelDRAW X7 -->
<svg xmlns="http://www.w3.org/2000/svg" xml:space="preserve" width="512px" height="512px" version="1.1" style="shape-rendering:geometricPrecision; text-rendering:geometricPrecision; image-rendering:optimizeQuality; fill-rule:evenodd; clip-rule:evenodd"
viewBox="0 0 51200 51200"
 xmlns:xlink="http://www.w3.org/1999/xlink">
 <defs>
  <style type="text/css">
   <![CDATA[
    .fil1 {fill:#FEFEFE}
    .fil0 {fill:#3A57A4}
   ]]>
  </style>
 </defs>
 <g id="Layer_x0020_1">
  <metadata id="CorelCorpID_0Corel-Layer"/>
  <g id="_254937928">
   <circle class="fil0" cx="25600" cy="25600" r="25600"/>
   <path class="fil1" d="M13854 11983c103,-1 205,-3 307,-3 4496,0 8555,1605 11442,4183 2887,-2579 6946,-4183 11441,-4183 103,0 205,2 307,3 -4258,605 -7946,2684 -10350,5613 614,725 1147,1503 1587,2325 2509,-4686 8025,-7941 14427,-7941 103,0 205,2 307,3 -7538,1071 -13292,6759 -13292,13617 0,6858 5754,12546 13292,13617 -102,1 -204,3 -307,3 -6402,0 -11918,-3255 -14427,-7941 -440,822 -973,1600 -1587,2325 2404,2929 6092,5008 10350,5613 -102,1 -204,3 -307,3 -4495,0 -8554,-1605 -11441,-4183 -2887,2578 -6946,4183 -11442,4183 -102,0 -204,-2 -307,-3 4258,-605 7946,-2684 10351,-5613 -614,-725 -1147,-1503 -1588,-2325 -2508,4686 -8024,7941 -14427,7941 -102,0 -204,-2 -307,-3 7539,-1071 13292,-6759 13292,-13617 0,-6858 -5753,-12546 -13292,-13617 103,-1 205,-3 307,-3 6403,0 11919,3255 14427,7941 441,-822 974,-1600 1588,-2325 -2405,-2929 -6093,-5008 -10351,-5613zm20044 11788c1010,0 1829,819 1829,1829 0,1010 -819,1829 -1829,1829 -1010,0 -1829,-819 -1829,-1829 0,-1010 819,-1829 1829,-1829zm3798 3798c1010,0 1829,819 1829,1829 0,1010 -819,1829 -1829,1829 -1010,0 -1829,-819 -1829,-1829 0,-1010 819,-1829 1829,-1829zm3798 -3798c1010,0 1828,819 1828,1829 0,1010 -818,1829 -1828,1829 -1010,0 -1829,-819 -1829,-1829 0,-1010 819,-1829 1829,-1829zm-3798 -3798c1010,0 1829,819 1829,1829 0,1010 -819,1829 -1829,1829 -1010,0 -1829,-819 -1829,-1829 0,-1010 819,-1829 1829,-1829zm-29819 6415l0 -1576c0,-365 299,-664 664,-664l2530 0 0 -2530c0,-365 299,-664 664,-664l1576 0c365,0 664,299 664,664l0 2530 2530 0c366,0 664,299 664,664l0 1576c0,365 -298,664 -664,664l-2530 0 0 2530c0,365 -299,664 -664,664l-1576 0c-365,0 -664,-299 -664,-664l0 -2530 -2530 0c-365,0 -664,-299 -664,-664zm17726 5154c989,-1799 1544,-3814 1544,-5942 0,-2128 -555,-4143 -1544,-5942 -989,1799 -1544,3814 -1544,5942 0,2128 555,4143 1544,5942z"/>
  </g>
 </g>
</svg>
