<?xml version="1.0" encoding="UTF-8"?>
<!DOCTYPE svg PUBLIC "-//W3C//DTD SVG 1.1//EN" "http://www.w3.org/Graphics/SVG/1.1/DTD/svg11.dtd">
<!-- Creator: CorelDRAW X7 -->
<svg xmlns="http://www.w3.org/2000/svg" xml:space="preserve" width="512px" height="393px" version="1.1" style="shape-rendering:geometricPrecision; text-rendering:geometricPrecision; image-rendering:optimizeQuality; fill-rule:evenodd; clip-rule:evenodd"
viewBox="0 0 51200 39300"
 xmlns:xlink="http://www.w3.org/1999/xlink">
 <defs>
  <style type="text/css">
   <![CDATA[
    .fil0 {fill:#3A57A4}
   ]]>
  </style>
 </defs>
 <g id="Layer_x0020_1">
  <metadata id="CorelCorpID_0Corel-Layer"/>
  <path class="fil0" d="M8649 -1c148,-3 295,-5 443,-5 6488,0 12346,2316 16512,6037 4167,-3721 10024,-6037 16512,-6037 148,0 296,2 443,5 -6145,873 -11468,3872 -14937,8100 886,1046 1655,2169 2291,3356 3620,-6764 11581,-11461 20820,-11461 148,0 296,2 444,5 -10880,1545 -19184,9754 -19184,19651 0,9897 8304,18106 19184,19651 -148,3 -296,5 -444,5 -9239,0 -17200,-4697 -20820,-11461 -636,1187 -1405,2310 -2291,3356 3469,4228 8792,7227 14937,8100 -147,3 -295,5 -443,5 -6488,0 -12345,-2316 -16512,-6037 -4166,3721 -10024,6037 -16512,6037 -148,0 -295,-2 -443,-5 6145,-873 11467,-3872 14937,-8100 -885,-1046 -1655,-2169 -2291,-3356 -3620,6764 -11581,11461 -20820,11461 -148,0 -296,-2 -443,-5 10879,-1545 19183,-9754 19183,-19651 0,-9897 -8304,-18106 -19183,-19651 147,-3 295,-5 443,-5 9239,0 17200,4697 20820,11461 636,-1187 1406,-2310 2291,-3356 -3470,-4228 -8792,-7227 -14937,-8100zm28927 17012c1457,0 2639,1182 2639,2639 0,1457 -1182,2639 -2639,2639 -1458,0 -2639,-1182 -2639,-2639 0,-1457 1181,-2639 2639,-2639zm5481 5481c1457,0 2639,1181 2639,2639 0,1457 -1182,2639 -2639,2639 -1458,0 -2640,-1182 -2640,-2639 0,-1458 1182,-2639 2640,-2639zm5480 -5481c1458,0 2640,1182 2640,2639 0,1457 -1182,2639 -2640,2639 -1457,0 -2639,-1182 -2639,-2639 0,-1457 1182,-2639 2639,-2639zm-5480 -5481c1457,0 2639,1182 2639,2639 0,1458 -1182,2639 -2639,2639 -1458,0 -2640,-1181 -2640,-2639 0,-1457 1182,-2639 2640,-2639zm-43034 9257l0 -2274c0,-527 431,-958 958,-958l3652 0 0 -3651c0,-528 431,-958 958,-958l2274 0c527,0 958,430 958,958l0 3651 3652 0c527,0 958,431 958,958l0 2274c0,527 -431,958 -958,958l-3652 0 0 3652c0,527 -431,958 -958,958l-2274 0c-527,0 -958,-431 -958,-958l0 -3652 -3652 0c-527,0 -958,-431 -958,-958zm25581 7439c1428,-2597 2228,-5505 2228,-8576 0,-3071 -800,-5979 -2228,-8576 -1428,2597 -2228,5506 -2228,8576 0,3070 800,5979 2228,8576z"/>
 </g>
</svg>
