<?xml version="1.0" encoding="UTF-8"?>
<!DOCTYPE svg PUBLIC "-//W3C//DTD SVG 1.1//EN" "http://www.w3.org/Graphics/SVG/1.1/DTD/svg11.dtd">
<!-- Creator: CorelDRAW X7 -->
<svg xmlns="http://www.w3.org/2000/svg" xml:space="preserve" width="72px" height="56px" version="1.1" style="shape-rendering:geometricPrecision; text-rendering:geometricPrecision; image-rendering:optimizeQuality; fill-rule:evenodd; clip-rule:evenodd"
viewBox="0 0 7200 5600"
 xmlns:xlink="http://www.w3.org/1999/xlink">
 <defs>
  <style type="text/css">
   <![CDATA[
    .fil0 {fill:url(#id0)}
   ]]>
  </style>
  <linearGradient id="id0" gradientUnits="userSpaceOnUse" x1="6544.23" y1="4952.17" x2="655.651" y2="647.856">
   <stop offset="0" style="stop-opacity:1; stop-color:#3E4095"/>
   <stop offset="0.211765" style="stop-opacity:1; stop-color:#3D4187"/>
   <stop offset="0.639216" style="stop-opacity:1; stop-color:#6E0999"/>
   <stop offset="1" style="stop-opacity:1; stop-color:#954F9D"/>
  </linearGradient>
 </defs>
 <g id="Layer_x0020_1">
  <metadata id="CorelCorpID_0Corel-Layer"/>
  <path class="fil0" d="M1204 22c21,0 41,-1 62,-1 917,0 1746,328 2335,854 589,-526 1417,-854 2334,-854 21,0 42,1 62,1 -868,123 -1621,547 -2111,1145 125,148 234,307 324,475 511,-957 1637,-1621 2943,-1621 21,0 42,1 63,1 -1538,218 -2712,1379 -2712,2778 0,1399 1174,2560 2712,2778 -21,0 -42,1 -63,1 -1306,0 -2432,-664 -2943,-1621 -90,168 -199,327 -324,475 490,598 1243,1022 2111,1145 -20,0 -41,1 -62,1 -917,0 -1745,-328 -2334,-854 -589,526 -1418,854 -2335,854 -21,0 -41,-1 -62,-1 868,-123 1621,-547 2111,-1145 -125,-148 -234,-307 -324,-475 -511,957 -1637,1621 -2943,1621 -21,0 -42,-1 -63,-1 1538,-218 2712,-1379 2712,-2778 0,-1399 -1174,-2560 -2712,-2778 21,0 42,-1 63,-1 1306,0 2432,664 2943,1621 90,-168 199,-327 324,-475 -490,-598 -1243,-1022 -2111,-1145zm4089 2405c206,0 373,167 373,373 0,206 -167,373 -373,373 -206,0 -373,-167 -373,-373 0,-206 167,-373 373,-373zm775 775c206,0 373,167 373,373 0,206 -167,373 -373,373 -206,0 -373,-167 -373,-373 0,-206 167,-373 373,-373zm775 -775c206,0 373,167 373,373 0,206 -167,373 -373,373 -207,0 -374,-167 -374,-373 0,-206 167,-373 374,-373zm-775 -775c206,0 373,167 373,373 0,206 -167,373 -373,373 -206,0 -373,-167 -373,-373 0,-206 167,-373 373,-373zm-6084 1309l0 -322c0,-74 61,-135 136,-135l516 0 0 -516c0,-75 61,-136 135,-136l322 0c74,0 135,61 135,136l0 516 517 0c74,0 135,61 135,135l0 322c0,74 -61,135 -135,135l-517 0 0 516c0,75 -61,136 -135,136l-322 0c-74,0 -135,-61 -135,-136l0 -516 -516 0c-75,0 -136,-61 -136,-135zm3617 1051c201,-367 314,-778 314,-1212 0,-434 -113,-845 -314,-1212 -202,367 -315,778 -315,1212 0,434 113,845 315,1212z"/>
 </g>
</svg>
