<?xml version="1.0" encoding="UTF-8"?>
<!DOCTYPE svg PUBLIC "-//W3C//DTD SVG 1.1//EN" "http://www.w3.org/Graphics/SVG/1.1/DTD/svg11.dtd">
<!-- Creator: CorelDRAW X7 -->
<svg xmlns="http://www.w3.org/2000/svg" xml:space="preserve" width="1024px" height="556px" version="1.1" style="shape-rendering:geometricPrecision; text-rendering:geometricPrecision; image-rendering:optimizeQuality; fill-rule:evenodd; clip-rule:evenodd"
viewBox="0 0 102400 55600"
 xmlns:xlink="http://www.w3.org/1999/xlink">
 <defs>
  <style type="text/css">
   <![CDATA[
    .fil0 {fill:url(#id0)}
   ]]>
  </style>
  <linearGradient id="id0" gradientUnits="userSpaceOnUse" x1="91800.9" y1="64063.4" x2="10598.9" y2="-8463.43">
   <stop offset="0" style="stop-opacity:1; stop-color:#1D69AC"/>
   <stop offset="0.521569" style="stop-opacity:1; stop-color:#240B9E"/>
   <stop offset="0.639216" style="stop-opacity:1; stop-color:#6E0999"/>
   <stop offset="1" style="stop-opacity:1; stop-color:#954F9D"/>
  </linearGradient>
 </defs>
 <g id="Layer_x0020_1">
  <metadata id="CorelCorpID_0Corel-Layer"/>
  <path class="fil0" d="M36690 -11c126,-1 252,-4 379,-4 5554,0 10568,1983 14135,5168 3567,-3185 8580,-5168 14134,-5168 126,0 252,3 379,4 -5260,748 -9817,3315 -12786,6935 758,895 1417,1856 1961,2872 3098,-5790 9913,-9811 17822,-9811 127,0 253,3 380,4 -9313,1323 -16421,8351 -16421,16822 0,8471 7108,15499 16421,16821 -127,3 -253,5 -380,5 -7909,0 -14724,-4021 -17822,-9811 -544,1016 -1203,1977 -1961,2872 2969,3620 7526,6187 12786,6934 -127,3 -253,5 -379,5 -5554,0 -10567,-1983 -14134,-5168 -3567,3185 -8581,5168 -14135,5168 -127,0 -253,-2 -379,-5 5260,-747 9816,-3314 12786,-6934 -758,-895 -1417,-1856 -1961,-2872 -3099,5790 -9913,9811 -17822,9811 -127,0 -253,-2 -379,-5 9312,-1322 16420,-8350 16420,-16821 0,-8471 -7108,-15499 -16420,-16822 126,-1 252,-4 379,-4 7909,0 14723,4021 17822,9811 544,-1016 1203,-1977 1961,-2872 -2970,-3620 -7526,-6187 -12786,-6935zm65690 48623l-6882 0c99,608 365,1094 794,1457 429,359 980,539 1645,539 799,0 1484,-282 2058,-845l1798 850c-448,639 -988,1111 -1613,1420 -628,305 -1371,459 -2232,459 -1337,0 -2426,-422 -3266,-1267 -840,-843 -1261,-1900 -1261,-3169 0,-1301 421,-2383 1261,-3241 840,-862 1892,-1291 3161,-1291 1344,0 2439,429 3282,1285 842,859 1263,1989 1263,3397l-8 406zm-2133 -1675c-142,-467 -421,-848 -837,-1140 -419,-293 -902,-437 -1454,-437 -599,0 -1122,163 -1575,493 -282,204 -545,566 -787,1084l4653 0zm-16086 -3204l2141 0 0 881c486,-408 929,-690 1323,-851 395,-158 800,-239 1213,-239 848,0 1570,295 2160,885 496,505 746,1248 746,2230l0 5643 -2125 0 0 -3738c0,-1019 -46,-1695 -137,-2028 -91,-336 -252,-590 -478,-765 -228,-174 -509,-263 -842,-263 -435,0 -808,145 -1119,435 -311,290 -526,692 -647,1202 -62,268 -94,845 -94,1733l0 3424 -2141 0 0 -8549zm-3008 -3509c376,0 698,137 966,408 271,271 405,598 405,984 0,381 -134,706 -400,974 -265,269 -585,403 -958,403 -381,0 -705,-137 -973,-411 -272,-273 -406,-606 -406,-998 0,-376 134,-695 400,-961 266,-265 588,-399 966,-399zm-1076 3509l2141 0 0 8549 -2141 0 0 -8549zm-4060 0l2126 0 0 7315c0,1444 -293,2506 -875,3185 -781,920 -1959,1382 -3534,1382 -837,0 -1543,-105 -2117,-314 -572,-209 -1055,-518 -1446,-926 -395,-405 -687,-899 -875,-1481l2375 0c209,239 480,419 813,542 330,121 721,183 1175,183 579,0 1044,-89 1395,-266 354,-177 601,-405 746,-684 145,-282 217,-765 217,-1452 -378,378 -775,652 -1191,816 -416,166 -886,249 -1411,249 -1151,0 -2125,-413 -2920,-1240 -794,-826 -1191,-1872 -1191,-3139 0,-1355 421,-2444 1261,-3265 765,-744 1674,-1114 2732,-1114 493,0 960,91 1400,271 438,180 878,478 1320,891l0 -953zm-2246 1804c-678,0 -1239,225 -1679,676 -443,451 -663,1017 -663,1698 0,709 225,1291 679,1744 451,454 1019,679 1704,679 668,0 1218,-223 1653,-665 432,-443 649,-1023 649,-1742 0,-708 -217,-1282 -655,-1725 -437,-443 -998,-665 -1688,-665zm-13759 -1804l2141 0 0 881c486,-408 929,-690 1323,-851 394,-158 800,-239 1213,-239 848,0 1569,295 2160,885 496,505 746,1248 746,2230l0 5643 -2126 0 0 -3738c0,-1019 -45,-1695 -136,-2028 -92,-336 -253,-590 -478,-765 -228,-174 -510,-263 -843,-263 -434,0 -807,145 -1118,435 -312,290 -526,692 -647,1202 -62,268 -94,845 -94,1733l0 3424 -2141 0 0 -8549zm-8114 -3010l6311 0 0 2157 -4122 0 0 2077 4122 0 0 2125 -4122 0 0 3043 4122 0 0 2157 -6311 0 0 -11559zm-11048 2801c808,0 1568,201 2279,604 713,402 1266,947 1666,1637 400,692 598,1435 598,2235 0,805 -201,1556 -601,2256 -402,701 -950,1248 -1642,1643 -695,394 -1457,593 -2291,593 -1229,0 -2278,-435 -3145,-1305 -869,-872 -1304,-1929 -1304,-3171 0,-1334 491,-2445 1473,-3333 861,-773 1849,-1159 2967,-1159zm33 2013c-668,0 -1224,230 -1666,692 -443,464 -666,1054 -666,1776 0,741 220,1342 657,1801 438,459 993,689 1667,689 671,0 1229,-233 1677,-698 445,-464 668,-1062 668,-1792 0,-732 -220,-1325 -657,-1784 -438,-456 -999,-684 -1680,-684zm-9703 -1804l1852 0 0 1087c198,-424 461,-746 789,-966 329,-220 689,-330 1078,-330 276,0 566,72 869,220l-665 1852c-249,-127 -456,-188 -617,-188 -328,0 -607,204 -832,612 -228,408 -341,1207 -341,2398l8 416 0 3448 -2141 0 0 -8549zm-9386 0l2141 0 0 881c486,-408 929,-690 1323,-851 395,-158 800,-239 1213,-239 848,0 1569,295 2160,885 496,505 746,1248 746,2230l0 5643 -2125 0 0 -3738c0,-1019 -46,-1695 -137,-2028 -91,-336 -252,-590 -478,-765 -228,-174 -510,-263 -842,-263 -435,0 -808,145 -1119,435 -311,290 -526,692 -647,1202 -62,268 -94,845 -94,1733l0 3424 -2141 0 0 -8549zm-1527 4879l-6882 0c99,608 365,1094 794,1457 429,359 979,539 1645,539 799,0 1484,-282 2058,-845l1798 850c-448,639 -988,1111 -1613,1420 -628,305 -1371,459 -2233,459 -1336,0 -2425,-422 -3265,-1267 -840,-843 -1261,-1900 -1261,-3169 0,-1301 421,-2383 1261,-3241 840,-862 1892,-1291 3161,-1291 1344,0 2439,429 3282,1285 842,859 1263,1989 1263,3397l-8 406zm-2133 -1675c-142,-467 -421,-848 -837,-1140 -419,-293 -902,-437 -1454,-437 -599,0 -1122,163 -1576,493 -281,204 -544,566 -786,1084l4653 0zm-17903 -6214l2499 0 2431 3711 2433 -3711 2501 0 -3687 5619 3891 5940 -2498 0 -2643 -4035 -2646 4035 -2501 0 3899 -5940 -3679 -5619zm61220 -26171c1248,0 2259,1012 2259,2259 0,1248 -1011,2259 -2259,2259 -1247,0 -2259,-1011 -2259,-2259 0,-1247 1012,-2259 2259,-2259zm4692 4691c1247,0 2259,1012 2259,2260 0,1247 -1012,2259 -2259,2259 -1248,0 -2259,-1012 -2259,-2259 0,-1248 1011,-2260 2259,-2260zm4691 -4691c1248,0 2260,1012 2260,2259 0,1248 -1012,2259 -2260,2259 -1247,0 -2259,-1011 -2259,-2259 0,-1247 1012,-2259 2259,-2259zm-4691 -4692c1247,0 2259,1012 2259,2259 0,1248 -1012,2260 -2259,2260 -1248,0 -2259,-1012 -2259,-2260 0,-1247 1011,-2259 2259,-2259zm-36837 7924l0 -1946c0,-451 369,-820 820,-820l3126 0 0 -3126c0,-451 369,-820 820,-820l1947 0c451,0 820,369 820,820l0 3126 3126 0c451,0 820,369 820,820l0 1946c0,452 -369,820 -820,820l-3126 0 0 3126c0,452 -369,820 -820,820l-1947 0c-451,0 -820,-368 -820,-820l0 -3126 -3126 0c-451,0 -820,-368 -820,-820zm21898 6368c1222,-2223 1906,-4712 1906,-7341 0,-2629 -684,-5118 -1906,-7341 -1223,2223 -1908,4713 -1908,7341 0,2628 685,5118 1908,7341z"/>
 </g>
</svg>
