<?xml version="1.0" encoding="UTF-8"?>
<!DOCTYPE svg PUBLIC "-//W3C//DTD SVG 1.1//EN" "http://www.w3.org/Graphics/SVG/1.1/DTD/svg11.dtd">
<!-- Creator: CorelDRAW X7 -->
<svg xmlns="http://www.w3.org/2000/svg" xml:space="preserve" width="512px" height="278px" version="1.1" style="shape-rendering:geometricPrecision; text-rendering:geometricPrecision; image-rendering:optimizeQuality; fill-rule:evenodd; clip-rule:evenodd"
viewBox="0 0 51200 27800"
 xmlns:xlink="http://www.w3.org/1999/xlink">
 <defs>
  <style type="text/css">
   <![CDATA[
    .fil0 {fill:url(#id0)}
   ]]>
  </style>
  <linearGradient id="id0" gradientUnits="userSpaceOnUse" x1="45924.6" y1="32053.2" x2="5275.29" y2="-4253.28">
   <stop offset="0" style="stop-opacity:1; stop-color:#1D69AC"/>
   <stop offset="0.521569" style="stop-opacity:1; stop-color:#240B9E"/>
   <stop offset="0.639216" style="stop-opacity:1; stop-color:#6E0999"/>
   <stop offset="1" style="stop-opacity:1; stop-color:#954F9D"/>
  </linearGradient>
 </defs>
 <g id="Layer_x0020_1">
  <metadata id="CorelCorpID_0Corel-Layer"/>
  <path class="fil0" d="M18336 -22c64,-1 127,-2 190,-2 2780,0 5290,993 7076,2587 1785,-1594 4295,-2587 7075,-2587 64,0 127,1 190,2 -2633,374 -4914,1660 -6401,3471 380,449 710,930 982,1438 1551,-2898 4963,-4911 8922,-4911 63,0 126,1 190,2 -4662,662 -8220,4180 -8220,8421 0,4241 3558,7758 8220,8421 -64,1 -127,2 -190,2 -3959,0 -7371,-2013 -8922,-4911 -272,508 -602,990 -982,1438 1487,1811 3768,3097 6401,3471 -63,1 -126,2 -190,2 -2780,0 -5290,-993 -7075,-2587 -1786,1594 -4296,2587 -7076,2587 -63,0 -126,-1 -190,-2 2633,-374 4914,-1660 6401,-3471 -380,-448 -709,-930 -982,-1438 -1551,2898 -4962,4911 -8921,4911 -64,0 -127,-1 -190,-2 4662,-663 8220,-4180 8220,-8421 0,-4241 -3558,-7759 -8220,-8421 63,-1 126,-2 190,-2 3959,0 7370,2013 8921,4911 273,-508 602,-989 982,-1438 -1487,-1811 -3768,-3097 -6401,-3471zm32885 24340l-3446 0c50,305 183,548 398,729 215,180 490,270 823,270 401,0 743,-141 1031,-423l899 426c-224,320 -494,556 -807,711 -314,153 -686,229 -1117,229 -669,0 -1215,-210 -1635,-634 -421,-421 -631,-951 -631,-1586 0,-651 210,-1193 631,-1623 420,-431 947,-646 1582,-646 673,0 1221,215 1643,644 422,430 633,995 633,1700l-4 203zm-1068 -838c-72,-234 -211,-424 -419,-571 -210,-146 -452,-219 -728,-219 -300,0 -562,82 -789,247 -141,102 -272,284 -393,543l2329 0zm-8053 -1604l1072 0 0 441c243,-204 465,-345 662,-426 198,-79 401,-120 607,-120 425,0 786,148 1082,444 248,252 373,624 373,1116l0 2825 -1064 0 0 -1872c0,-510 -23,-848 -68,-1015 -46,-168 -126,-295 -239,-383 -114,-87 -255,-131 -422,-131 -218,0 -404,72 -560,217 -156,145 -263,347 -324,602 -31,134 -47,423 -47,868l0 1714 -1072 0 0 -4280zm-1506 -1757c188,0 350,69 484,204 136,136 203,300 203,493 0,191 -67,354 -200,488 -133,134 -293,201 -480,201 -191,0 -353,-68 -487,-205 -136,-137 -203,-304 -203,-500 0,-188 67,-348 200,-481 133,-133 294,-200 483,-200zm-538 1757l1072 0 0 4280 -1072 0 0 -4280zm-2033 0l1064 0 0 3662c0,722 -146,1254 -438,1594 -390,461 -980,692 -1769,692 -419,0 -772,-52 -1059,-157 -286,-105 -528,-259 -724,-464 -198,-202 -344,-450 -438,-741l1188 0c105,119 241,209 407,271 166,61 362,92 589,92 290,0 522,-45 698,-133 178,-89 301,-203 374,-343 72,-141 108,-383 108,-727 -189,190 -388,327 -596,409 -208,83 -443,125 -707,125 -576,0 -1063,-207 -1461,-621 -397,-414 -596,-937 -596,-1572 0,-678 211,-1223 631,-1634 383,-372 838,-558 1367,-558 248,0 481,46 702,136 219,90 439,239 660,446l0 -477zm-1124 903c-340,0 -621,113 -841,338 -221,226 -332,509 -332,851 0,354 113,646 340,873 226,227 511,339 853,339 335,0 610,-111 828,-333 216,-221 325,-511 325,-871 0,-355 -109,-643 -328,-864 -219,-222 -500,-333 -845,-333zm-6888 -903l1072 0 0 441c243,-204 465,-345 662,-426 198,-79 401,-120 607,-120 425,0 786,148 1082,444 248,252 373,624 373,1116l0 2825 -1064 0 0 -1872c0,-510 -23,-848 -68,-1015 -46,-168 -127,-295 -239,-383 -115,-87 -256,-131 -422,-131 -218,0 -404,72 -560,217 -156,145 -264,347 -324,602 -31,134 -47,423 -47,868l0 1714 -1072 0 0 -4280zm-4062 -1507l3159 0 0 1080 -2063 0 0 1040 2063 0 0 1063 -2063 0 0 1524 2063 0 0 1080 -3159 0 0 -5787zm-5530 1402c404,0 785,101 1140,303 358,201 635,474 835,819 200,347 299,719 299,1119 0,403 -101,779 -301,1129 -201,351 -475,625 -822,823 -348,197 -729,296 -1147,296 -615,0 -1140,-217 -1574,-652 -435,-437 -653,-966 -653,-1588 0,-668 246,-1224 738,-1668 431,-387 925,-581 1485,-581zm16 1008c-334,0 -612,115 -834,346 -222,233 -333,528 -333,890 0,370 110,671 329,901 219,230 497,345 834,345 336,0 615,-117 840,-349 223,-233 334,-532 334,-897 0,-367 -110,-664 -329,-894 -219,-228 -500,-342 -841,-342zm-4857 -903l927 0 0 544c99,-212 231,-373 395,-483 165,-111 345,-166 540,-166 138,0 283,37 435,111l-333 926c-125,-63 -228,-94 -309,-94 -164,0 -304,102 -416,307 -115,204 -171,604 -171,1200l4 209 0 1726 -1072 0 0 -4280zm-4698 0l1071 0 0 441c243,-204 465,-345 663,-426 197,-79 400,-120 607,-120 424,0 785,148 1081,444 249,252 373,624 373,1116l0 2825 -1063 0 0 -1872c0,-510 -23,-848 -69,-1015 -46,-168 -126,-295 -239,-383 -114,-87 -255,-131 -422,-131 -217,0 -404,72 -560,217 -156,145 -263,347 -324,602 -31,134 -47,423 -47,868l0 1714 -1071 0 0 -4280zm-765 2442l-3445 0c50,305 183,548 398,729 214,180 490,270 823,270 400,0 743,-141 1030,-423l900 426c-224,320 -494,556 -807,711 -315,153 -687,229 -1118,229 -669,0 -1214,-210 -1634,-634 -421,-421 -632,-951 -632,-1586 0,-651 211,-1193 632,-1623 420,-431 946,-646 1582,-646 673,0 1221,215 1643,644 421,430 632,995 632,1700l-4 203zm-1068 -838c-71,-234 -211,-424 -419,-571 -209,-146 -451,-219 -728,-219 -299,0 -561,82 -788,247 -141,102 -273,284 -394,543l2329 0zm-8962 -3111l1251 0 1217 1858 1218 -1858 1252 0 -1845 2813 1947 2974 -1250 0 -1323 -2021 -1325 2021 -1252 0 1952 -2974 -1842 -2813zm30647 -13101c624,0 1131,507 1131,1131 0,624 -507,1131 -1131,1131 -625,0 -1131,-507 -1131,-1131 0,-624 506,-1131 1131,-1131zm2348 2349c625,0 1131,506 1131,1130 0,625 -506,1132 -1131,1132 -624,0 -1131,-507 -1131,-1132 0,-624 507,-1130 1131,-1130zm2349 -2349c624,0 1131,507 1131,1131 0,624 -507,1131 -1131,1131 -625,0 -1131,-507 -1131,-1131 0,-624 506,-1131 1131,-1131zm-2349 -2349c625,0 1131,507 1131,1131 0,625 -506,1131 -1131,1131 -624,0 -1131,-506 -1131,-1131 0,-624 507,-1131 1131,-1131zm-18440 3967l0 -974c0,-226 185,-411 411,-411l1564 0 0 -1565c0,-225 185,-410 411,-410l974 0c226,0 411,185 411,410l0 1565 1565 0c226,0 410,185 410,411l0 974c0,226 -184,411 -410,411l-1565 0 0 1565c0,225 -185,410 -411,410l-974 0c-226,0 -411,-185 -411,-410l0 -1565 -1564 0c-226,0 -411,-185 -411,-411zm10962 3188c612,-1113 954,-2359 954,-3675 0,-1316 -342,-2562 -954,-3675 -612,1113 -955,2359 -955,3675 0,1316 343,2562 955,3675z"/>
 </g>
</svg>
