<?xml version="1.0" encoding="UTF-8"?>
<!DOCTYPE svg PUBLIC "-//W3C//DTD SVG 1.1//EN" "http://www.w3.org/Graphics/SVG/1.1/DTD/svg11.dtd">
<!-- Creator: CorelDRAW X7 -->
<svg xmlns="http://www.w3.org/2000/svg" xml:space="preserve" width="512px" height="462px" version="1.1" style="shape-rendering:geometricPrecision; text-rendering:geometricPrecision; image-rendering:optimizeQuality; fill-rule:evenodd; clip-rule:evenodd"
viewBox="0 0 51200 46200"
 xmlns:xlink="http://www.w3.org/1999/xlink">
 <defs>
  <style type="text/css">
   <![CDATA[
    .fil0 {fill:#3A57A4}
   ]]>
  </style>
 </defs>
 <g id="Layer_x0020_1">
  <metadata id="CorelCorpID_0Corel-Layer"/>
  <path class="fil0" d="M46044 36036c915,0 1775,227 2580,683 808,456 1434,1073 1887,1854 453,784 678,1625 678,2531 0,911 -228,1762 -681,2555 -456,793 -1076,1413 -1860,1860 -786,446 -1649,671 -2595,671 -1391,0 -2579,-492 -3561,-1476 -984,-988 -1476,-2185 -1476,-3592 0,-1510 556,-2768 1668,-3774 975,-875 2093,-1312 3360,-1312zm37 2279c-757,0 -1386,261 -1887,784 -501,525 -754,1194 -754,2011 0,839 250,1519 745,2039 495,520 1124,781 1887,781 759,0 1391,-265 1899,-790 504,-526 756,-1204 756,-2030 0,-830 -249,-1501 -744,-2021 -495,-516 -1130,-774 -1902,-774z"/>
  <path class="fil0" d="M22736 41797l-7794 0c112,689 413,1239 899,1650 487,407 1110,610 1863,610 906,0 1680,-319 2331,-957l2035 963c-507,723 -1118,1258 -1826,1608 -711,346 -1553,519 -2528,519 -1513,0 -2747,-477 -3698,-1434 -951,-954 -1428,-2151 -1428,-3588 0,-1474 477,-2698 1428,-3671 951,-975 2142,-1461 3580,-1461 1522,0 2762,486 3716,1455 954,972 1431,2252 1431,3847l-9 459zm-2416 -1896c-161,-529 -477,-961 -948,-1292 -474,-331 -1021,-495 -1647,-495 -677,0 -1270,185 -1783,559 -319,231 -617,641 -891,1228l5269 0z"/>
  <path class="fil0" d="M8469 13850l0 -1514c0,-351 287,-637 638,-637l2430 0 0 -2431c0,-351 287,-637 638,-637l1513 0c351,0 638,286 638,637l0 2431 2431 0c351,0 638,286 638,637l0 1514c0,351 -287,638 -638,638l-2431 0 0 2430c0,351 -287,638 -638,638l-1513 0c-351,0 -638,-287 -638,-638l0 -2430 -2430 0c-351,0 -638,-287 -638,-638z"/>
  <path class="fil0" d="M37113 7688c970,0 1757,787 1757,1757 0,970 -787,1757 -1757,1757 -970,0 -1757,-787 -1757,-1757 0,-970 787,-1757 1757,-1757z"/>
  <path class="fil0" d="M40761 11337c970,0 1757,786 1757,1756 0,970 -787,1757 -1757,1757 -970,0 -1756,-787 -1756,-1757 0,-970 786,-1756 1756,-1756z"/>
  <path class="fil0" d="M37113 14984c970,0 1757,787 1757,1757 0,971 -787,1757 -1757,1757 -970,0 -1757,-786 -1757,-1757 0,-970 787,-1757 1757,-1757z"/>
  <path class="fil0" d="M33465 11337c970,0 1756,786 1756,1756 0,970 -786,1757 -1756,1757 -970,0 -1757,-787 -1757,-1757 0,-970 787,-1756 1757,-1756z"/>
  <path class="fil0" d="M35093 36273l2097 0 0 1230c225,-480 523,-844 894,-1094 373,-249 780,-373 1221,-373 313,0 641,82 984,249l-753 2096c-283,-142 -517,-212 -699,-212 -371,0 -687,231 -942,692 -258,463 -386,1368 -386,2717l9 471 0 3904 -2425 0 0 -9680z"/>
  <path class="fil0" d="M24465 36273l2425 0 0 996c549,-461 1051,-781 1498,-963 446,-179 905,-270 1373,-270 960,0 1777,334 2446,1002 562,572 845,1413 845,2526l0 6389 -2407 0 0 -4232c0,-1155 -52,-1921 -155,-2297 -103,-380 -285,-669 -541,-866 -258,-198 -577,-298 -954,-298 -492,0 -914,164 -1267,492 -352,328 -596,784 -732,1361 -70,304 -106,958 -106,1963l0 3877 -2425 0 0 -9680z"/>
  <polygon class="fil0" points="260,32863 3089,32863 5842,37066 8598,32863 11430,32863 7255,39226 11661,45953 8832,45953 5839,41383 2843,45953 11,45953 4426,39226 "/>
  <path class="fil0" d="M14210 13c99,-2 197,-3 295,-3 4319,0 8218,1541 10991,4018 2774,-2477 6672,-4018 10991,-4018 98,0 196,1 295,3 -4090,581 -7634,2578 -9943,5392 590,696 1102,1444 1525,2233 2409,-4502 7709,-7628 13858,-7628 99,0 198,1 296,3 -7242,1028 -12769,6493 -12769,13080 0,6588 5527,12052 12769,13080 -98,2 -197,4 -296,4 -6149,0 -11449,-3127 -13858,-7629 -423,790 -935,1538 -1525,2233 2309,2815 5853,4811 9943,5392 -99,2 -197,4 -295,4 -4319,0 -8217,-1542 -10991,-4019 -2773,2477 -6672,4019 -10991,4019 -98,0 -196,-2 -295,-4 4091,-581 7634,-2577 9943,-5392 -589,-695 -1102,-1443 -1525,-2233 -2409,4502 -7708,7629 -13858,7629 -99,0 -197,-2 -295,-4 7241,-1028 12768,-6492 12768,-13080 0,-6587 -5527,-12052 -12768,-13080 98,-2 196,-3 295,-3 6150,0 11449,3126 13858,7628 423,-789 936,-1537 1525,-2233 -2309,-2814 -5852,-4811 -9943,-5392zm11286 18789c951,-1729 1483,-3665 1483,-5709 0,-2044 -532,-3979 -1483,-5708 -950,1729 -1483,3664 -1483,5708 0,2044 533,3980 1483,5709z"/>
 </g>
</svg>
