<?xml version="1.0" encoding="UTF-8"?>
<!DOCTYPE svg PUBLIC "-//W3C//DTD SVG 1.1//EN" "http://www.w3.org/Graphics/SVG/1.1/DTD/svg11.dtd">
<!-- Creator: CorelDRAW X7 -->
<svg xmlns="http://www.w3.org/2000/svg" xml:space="preserve" width="1024px" height="924px" version="1.1" style="shape-rendering:geometricPrecision; text-rendering:geometricPrecision; image-rendering:optimizeQuality; fill-rule:evenodd; clip-rule:evenodd"
viewBox="0 0 102400 92400"
 xmlns:xlink="http://www.w3.org/1999/xlink">
 <defs>
  <style type="text/css">
   <![CDATA[
    .fil0 {fill:url(#id0)}
   ]]>
  </style>
  <linearGradient id="id0" gradientUnits="userSpaceOnUse" x1="91402.7" y1="85925" x2="10996.7" y2="6474.45">
   <stop offset="0" style="stop-opacity:1; stop-color:#1D69AB"/>
   <stop offset="0.431373" style="stop-opacity:1; stop-color:#3150A0"/>
   <stop offset="0.65098" style="stop-opacity:1; stop-color:#6D3C8D"/>
   <stop offset="1" style="stop-opacity:1; stop-color:#954F9D"/>
  </linearGradient>
 </defs>
 <g id="Layer_x0020_1">
  <metadata id="CorelCorpID_0Corel-Layer"/>
  <path class="fil0" d="M28400 -16c197,-3 393,-7 590,-7 8645,0 16451,3087 22002,8045 5554,-4959 13357,-8045 22002,-8045 197,0 393,4 590,7 -8188,1164 -15281,5160 -19903,10794 1180,1393 2205,2890 3052,4471 4823,-9013 15431,-15272 27742,-15272 198,0 394,4 591,7 -14496,2059 -25560,12998 -25560,26184 0,13187 11064,24125 25560,26184 -197,4 -393,8 -591,8 -12311,0 -22919,-6260 -27742,-15273 -847,1582 -1872,3079 -3052,4472 4622,5633 11715,9630 19903,10793 -197,4 -393,8 -590,8 -8645,0 -16448,-3087 -22002,-8045 -5551,4958 -13357,8045 -22002,8045 -197,0 -393,-4 -590,-8 8188,-1163 15280,-5160 19903,-10793 -1180,-1393 -2205,-2890 -3052,-4472 -4824,9013 -15431,15273 -27742,15273 -197,0 -394,-4 -591,-8 14496,-2059 25560,-12997 25560,-26184 0,-13186 -11064,-24125 -25560,-26184 197,-3 394,-7 591,-7 12311,0 22918,6259 27742,15272 847,-1581 1872,-3078 3052,-4471 -4623,-5634 -11715,-9630 -19903,-10794zm-27925 65760l5663 0 5511 8413 5516 -8413 5669 0 -8357 12738 8819 13466 -5662 0 -5992 -9148 -5997 9148 -5669 0 8838 -13466 -8339 -12738zm44991 17883l-15601 0c225,1381 827,2482 1800,3303 973,815 2220,1223 3729,1223 1812,0 3363,-639 4665,-1917l4075 1929c-1015,1447 -2238,2518 -3655,3218 -1424,693 -3109,1040 -5061,1040 -3029,0 -5499,-955 -7402,-2871 -1904,-1910 -2859,-4307 -2859,-7184 0,-2950 955,-5401 2859,-7348 1903,-1952 4288,-2925 7165,-2925 3048,0 5529,973 7439,2913 1910,1947 2865,4508 2865,7701l-19 918zm-4835 -3795c-323,-1059 -955,-1922 -1898,-2585 -949,-663 -2044,-992 -3297,-992 -1356,0 -2542,371 -3570,1119 -639,463 -1235,1284 -1782,2458l10547 0zm8296 -7263l4854 0 0 1996c1101,-925 2105,-1564 2999,-1929 894,-359 1813,-541 2749,-541 1922,0 3558,669 4897,2007 1125,1144 1691,2829 1691,5055l0 12791 -4818 0 0 -8473c0,-2311 -103,-3844 -310,-4598 -207,-761 -572,-1339 -1083,-1734 -517,-395 -1155,-596 -1910,-596 -985,0 -1830,329 -2536,986 -705,657 -1192,1569 -1466,2725 -140,608 -213,1916 -213,3929l0 7761 -4854 0 0 -19379zm21277 0l4198 0 0 2464c449,-961 1045,-1691 1788,-2190 748,-499 1563,-748 2445,-748 626,0 1283,164 1970,498l-1508 4198c-565,-286 -1034,-426 -1399,-426 -742,0 -1375,462 -1885,1387 -517,924 -773,2737 -773,5437l18 943 0 7816 -4854 0 0 -19379zm21922 -474c1831,0 3552,456 5164,1368 1618,913 2871,2147 3777,3711 906,1569 1357,3254 1357,5066 0,1825 -457,3529 -1363,5116 -912,1588 -2153,2828 -3722,3722 -1576,895 -3303,1345 -5195,1345 -2786,0 -5164,-986 -7129,-2956 -1970,-1977 -2956,-4374 -2956,-7190 0,-3023 1113,-5541 3340,-7555 1952,-1751 4191,-2627 6727,-2627zm73 4562c-1514,0 -2774,523 -3777,1569 -1004,1052 -1509,2390 -1509,4027 0,1678 499,3041 1490,4081 992,1040 2251,1563 3778,1563 1521,0 2785,-529 3801,-1581 1010,-1053 1515,-2409 1515,-4063 0,-1661 -499,-3005 -1490,-4045 -992,-1034 -2263,-1551 -3808,-1551zm-25255 -54005c1942,0 3516,1574 3516,3516 0,1942 -1574,3517 -3516,3517 -1942,0 -3517,-1575 -3517,-3517 0,-1942 1575,-3516 3517,-3516zm7303 7302c1941,0 3516,1576 3516,3517 0,1942 -1575,3517 -3516,3517 -1942,0 -3517,-1575 -3517,-3517 0,-1941 1575,-3517 3517,-3517zm7303 -7302c1942,0 3516,1574 3516,3516 0,1942 -1574,3517 -3516,3517 -1943,0 -3517,-1575 -3517,-3517 0,-1942 1574,-3516 3517,-3516zm-7303 -7303c1941,0 3516,1575 3516,3517 0,1941 -1575,3516 -3516,3516 -1942,0 -3517,-1575 -3517,-3516 0,-1942 1575,-3517 3517,-3517zm-57340 12335l0 -3031c0,-702 575,-1276 1276,-1276l4866 0 0 -4866c0,-702 574,-1275 1277,-1275l3029 0c702,0 1277,573 1277,1275l0 4866 4866 0c703,0 1277,574 1277,1276l0 3031c0,702 -574,1276 -1277,1276l-4866 0 0 4866c0,701 -575,1276 -1277,1276l-3029 0c-703,0 -1277,-575 -1277,-1276l0 -4866 -4866 0c-701,0 -1276,-574 -1276,-1276zm34085 9911c1903,-3459 2968,-7335 2968,-11427 0,-4092 -1065,-7966 -2968,-11427 -1902,3461 -2969,7335 -2969,11427 0,4092 1067,7968 2969,11427z"/>
 </g>
</svg>
